<svg id="Layer_1" data-name="Layer 1" xmlns="http://www.w3.org/2000/svg" viewBox="0 0 1800.01 179.99"><title>building</title><path d="M1252,120V87.3H1247V28.64h-22.9V49.46h-1.49v2.39H1221v2.67h-2.51l-5.3,4.79v6.8h-3.38V18.71h-20.45V70.45l-14.28.1V57.9h-6.39V55.54H1168V32.09h-17.75v-.34h-.55V24.14L1148.64,23h-18.55L1129,24.13V36.81h-.55V51.45h.55V65l-1.71-1.27-7-4.85-1.91,1.36v-1l-.84.65v1l-3.28,2.26L1111,60.79v-.95l-.85-.65v1l-1.91-1.36-6.95,4.85-1.73,1.23V38.38l-1.06-1.16H1080l-1.06,1.16V46h-.55v.34h-17.77v9.2H1060V57.9h-6.39V71.12l-7.72-4.57-6.56,3.89V36h-20.45V66.11h-3.38V59.3l-5.3-4.79h-2.51V51.85h-1.61V49.46h-1.46V42.62h-10V60.1H977.74V86.88H962.39v-6h-6.14v6H952.1v-11H940.72V93.78H928.67V54.7H915.93V87.06H904.86V74.2h-6.67v-32h-21V87.06H867V69.34L852.3,87.7v13.22H840.42V66.13H822.25V47.69H809.11V66.83H802V23.37h-18.4V64.74H766v18.1h-8.59V95.36H743.86v-39H727.24V73.07h-7.79V11.15H704.89V29.92l-7.76,7.73V62.21h-12.8V73.07H662.65V23.37H645.58V52.21H628.67V33.27H617.48V0h-21V73.07H585.12V33H562.27V89.1H542V120h710Z" transform="translate(0 -0.01)" style="fill:#ededed"/><path id="Shape_6_copy_2" data-name="Shape 6 copy 2" d="M0,120H560V87.3h-5V28.64h-22.9V49.46h-1.49v2.39H529v2.67h-2.52l-5.29,4.78v6.8h-3.38V18.71H497.32V70.45l-14.29.1V57.9h-6.39V55.54H476V32.09H458.27v-.34h-.55V24.14L456.64,23H438.09L437,24.13V36.81h-.55V51.45H437V65l-1.71-1.26-7-4.85-1.91,1.36v-1l-.85.65v1l-3.28,2.26L419,60.79v-.95l-.85-.65v1l-1.91-1.36-6.94,4.85-1.73,1.23V38.38l-1.06-1.16H388l-1.06,1.16V46h-.55v.34H368.62v9.2H368V57.9H361.6V71.12l-7.72-4.57-6.57,3.89V36H326.87V66.11h-3.38V59.3l-5.3-4.79h-2.51V51.85h-1.61V49.46H312.6V42.62h-10V60.1H285.74V86.88H270.39v-6h-6.14v6H260.1v-11H248.72V93.78H236.67V54.7H223.93V87.06H212.86V74.2h-6.67v-32h-21V87.06H174.95V69.34L160.3,87.7v13.22H148.42V66.13H130.25V47.69H117.11V66.83H110V23.37H91.65V64.74H74v18.1H65.41V95.36H51.86v-39H35.24V73.07H27.46V11.15H12.89V29.92L5.13,37.65V62.21H.33" transform="translate(0 -0.01)" style="fill:#ededed"/><path id="Shape_6_copy" data-name="Shape 6 copy" d="M1800,64.92h-2.39V38.38l-1.06-1.16H1778l-1.06,1.16V46h-.55v.34h-17.77v9.2H1758V57.9h-6.39V71.12l-7.72-4.57-6.56,3.89V36h-20.45V66.11h-3.38V59.3l-5.3-4.79h-2.51V51.85h-1.61V49.46h-1.46V42.62h-10V60.1h-16.88V86.88h-15.35v-6h-6.14v6h-4.15v-11h-11.38V93.78h-12.05V54.7h-12.74V87.06h-11.07V74.2h-6.67v-32h-21V87.06h-10.26V69.34L1550.3,87.7v13.22h-11.88V66.13h-18.17V47.69h-13.14V66.83H1500V23.37h-18.4V64.74H1464v18.1h-8.59V95.36h-13.55v-39h-16.61V73.07h-7.79V11.15h-14.57V29.92l-7.76,7.73V62.21h-12.79V73.07h-21.69V23.37h-17.07V52.21h-16.91V33.27h-11.19V0h-21V73.07h-11.39V33h-22.85V89.1H1240V120h560" transform="translate(0 -0.01)" style="fill:#ededed"/><path id="Shape_6_copy-2" data-name="Shape 6 copy" d="M1825.32,63.7" transform="translate(0 -0.01)" style="fill:#ededed"/><rect y="117.99" width="1800" height="62" style="fill:#ededed"/></svg>